<svg xmlns="http://www.w3.org/2000/svg">
<symbol id="i-logo" viewBox="0 0 120 120"><rect x="6" y="6" width="32" height="32" rx="7" fill="currentColor" stroke="none"/><rect x="44" y="6" width="32" height="32" rx="7" fill="currentColor" stroke="none"/><rect x="82" y="6" width="32" height="32" rx="7" fill="currentColor" stroke="none"/><rect x="6" y="44" width="32" height="32" rx="7" fill="currentColor" stroke="none"/><rect x="44" y="44" width="32" height="32" rx="7" fill="#E08A2E" stroke="none"/><rect x="82" y="44" width="32" height="32" rx="7" fill="currentColor" stroke="none"/><rect x="6" y="82" width="32" height="32" rx="7" fill="currentColor" stroke="none"/><rect x="44" y="82" width="32" height="32" rx="7" fill="currentColor" stroke="none"/><rect x="85" y="85" width="26" height="26" rx="5" fill="none" stroke="currentColor" stroke-width="5"/></symbol>
<symbol id="i-home" viewBox="0 0 24 24"><path d="M3 10.5 12 3l9 7.5"/><path d="M5 9.5V20h5v-6h4v6h5V9.5"/></symbol>
<symbol id="i-brain" viewBox="0 0 24 24"><path d="M9 3a3 3 0 0 0-3 3 3 3 0 0 0-3 3c0 1.2.6 2.2 1.5 2.8A3.5 3.5 0 0 0 6 18a3 3 0 0 0 6 0V6a3 3 0 0 0-3-3Z"/><path d="M15 3a3 3 0 0 1 3 3 3 3 0 0 1 3 3c0 1.2-.6 2.2-1.5 2.8A3.5 3.5 0 0 1 18 18a3 3 0 0 1-6 0"/><path d="M9 9h1.5M13.5 13H15"/></symbol>
<symbol id="i-key" viewBox="0 0 24 24"><circle cx="7.5" cy="15.5" r="4"/><path d="m10.5 12.5 9-9M16 7l2.5 2.5M18.5 4.5 21 7"/></symbol>
<symbol id="i-users" viewBox="0 0 24 24"><circle cx="9" cy="8" r="3.5"/><path d="M2.5 20a6.5 6.5 0 0 1 13 0"/><path d="M16 4.6a3.5 3.5 0 0 1 0 6.8M18.5 14.3A6.5 6.5 0 0 1 21.5 20"/></symbol>
<symbol id="i-building" viewBox="0 0 24 24"><path d="M4 21V5l8-2v18M12 8l8 2.5V21M3 21h18"/><path d="M7.5 8h1M7.5 12h1M7.5 16h1M15.5 13h1M15.5 17h1"/></symbol>
<symbol id="i-user-cog" viewBox="0 0 24 24"><circle cx="9" cy="8" r="3.5"/><path d="M2.5 20a6.5 6.5 0 0 1 10-5.5"/><circle cx="18" cy="17" r="2.2"/><path d="M18 12.8v1.9M18 19.3v1.9M21.6 14.9l-1.6.9M16 18.2l-1.6.9M21.6 19.1 20 18.2M16 15.8l-1.6-.9"/></symbol>
<symbol id="i-layers" viewBox="0 0 24 24"><path d="m12 3 9 5-9 5-9-5 9-5Z"/><path d="m3 12.5 9 5 9-5M3 17l9 5 9-5"/></symbol>
<symbol id="i-shield" viewBox="0 0 24 24"><path d="M12 3 4.5 6v6c0 4.5 3.2 7.7 7.5 9 4.3-1.3 7.5-4.5 7.5-9V6L12 3Z"/><path d="m9 12 2 2 4-4"/></symbol>
<symbol id="i-list" viewBox="0 0 24 24"><path d="M9 6h11M9 12h11M9 18h11"/><circle cx="4.5" cy="6" r=".8"/><circle cx="4.5" cy="12" r=".8"/><circle cx="4.5" cy="18" r=".8"/></symbol>
<symbol id="i-plug" viewBox="0 0 24 24"><path d="M9 3v5M15 3v5M6 8h12v3a6 6 0 0 1-12 0V8ZM12 17v4"/></symbol>
<symbol id="i-pulse" viewBox="0 0 24 24"><path d="M3 12h4l2.5-6 4 12 2.5-6H21"/></symbol>
<symbol id="i-spark" viewBox="0 0 24 24"><path d="M12 3v4M12 17v4M3 12h4M17 12h4M6 6l2.5 2.5M15.5 15.5 18 18M6 18l2.5-2.5M15.5 8.5 18 6"/></symbol>
<symbol id="i-book" viewBox="0 0 24 24"><path d="M4 5.5A2.5 2.5 0 0 1 6.5 3H20v15H6.5A2.5 2.5 0 0 0 4 20.5v-15Z"/><path d="M4 20.5A2.5 2.5 0 0 0 6.5 23H20v-5"/></symbol>
<symbol id="i-menu" viewBox="0 0 24 24"><path d="M4 6h16M4 12h16M4 18h16"/></symbol>
<symbol id="i-sun" viewBox="0 0 24 24"><circle cx="12" cy="12" r="4"/><path d="M12 2v2M12 20v2M4.9 4.9l1.4 1.4M17.7 17.7l1.4 1.4M2 12h2M20 12h2M4.9 19.1l1.4-1.4M17.7 6.3l1.4-1.4"/></symbol>
<symbol id="i-moon" viewBox="0 0 24 24"><path d="M20.5 14.5A8.5 8.5 0 1 1 9.5 3.5a7 7 0 0 0 11 11Z"/></symbol>
<symbol id="i-logout" viewBox="0 0 24 24"><path d="M15 4h3a2 2 0 0 1 2 2v12a2 2 0 0 1-2 2h-3M10 16l-4-4 4-4M6 12h10"/></symbol>
<symbol id="i-search" viewBox="0 0 24 24"><circle cx="11" cy="11" r="6.5"/><path d="m20 20-4.4-4.4"/></symbol>
<symbol id="i-more" viewBox="0 0 24 24"><circle cx="5.5" cy="12" r="1"/><circle cx="12" cy="12" r="1"/><circle cx="18.5" cy="12" r="1"/></symbol>
<symbol id="i-x" viewBox="0 0 24 24"><path d="M6 6l12 12M18 6 6 18"/></symbol>
<symbol id="i-copy" viewBox="0 0 24 24"><rect x="8" y="8" width="12" height="12" rx="2"/><path d="M16 8V6a2 2 0 0 0-2-2H6a2 2 0 0 0-2 2v8a2 2 0 0 0 2 2h2"/></symbol>
<symbol id="i-check" viewBox="0 0 24 24"><path d="m5 12.5 4.5 4.5L19 7.5"/></symbol>
<symbol id="i-alert" viewBox="0 0 24 24"><path d="M12 3 2 20h20L12 3Z"/><path d="M12 10v4.5M12 17.5v.5"/></symbol>
<symbol id="i-plus" viewBox="0 0 24 24"><path d="M12 5v14M5 12h14"/></symbol>
<symbol id="i-arrow-up" viewBox="0 0 24 24"><path d="M12 19V5M6 11l6-6 6 6"/></symbol>
<symbol id="i-arrow-down" viewBox="0 0 24 24"><path d="M12 5v14M6 13l6 6 6-6"/></symbol>
<symbol id="i-trash" viewBox="0 0 24 24"><path d="M4 7h16M9 7V4h6v3M6 7l1 13h10l1-13M10 11v6M14 11v6"/></symbol>
<symbol id="i-clock" viewBox="0 0 24 24"><circle cx="12" cy="12" r="8.5"/><path d="M12 7.5V12l3 2"/></symbol>
<symbol id="i-database" viewBox="0 0 24 24"><ellipse cx="12" cy="5.5" rx="8" ry="3"/><path d="M4 5.5v13c0 1.7 3.6 3 8 3s8-1.3 8-3v-13"/><path d="M4 12c0 1.7 3.6 3 8 3s8-1.3 8-3"/></symbol>
<symbol id="i-history" viewBox="0 0 24 24"><path d="M3.5 12a8.5 8.5 0 1 0 2.5-6"/><path d="M3 4v4h4M12 7.5V12l3 2"/></symbol>
<symbol id="i-edit" viewBox="0 0 24 24"><path d="M4 20h4L19 9l-4-4L4 16v4ZM13.5 6.5l4 4"/></symbol>
</svg>
